<svg width="100" height="98" viewBox="0 0 100 98" fill="none" xmlns="http://www.w3.org/2000/svg">
<g clip-path="url(#clip0)">
<path fill-rule="evenodd" clip-rule="evenodd" d="M32.0964 34.7544C31.0954 34.7953 30.3385 34.9994 29.8177 35.3505C29.5247 35.5465 29.305 35.8078 29.1667 36.11C29.012 36.4448 28.9388 36.8531 28.9551 37.3267C28.9958 38.7068 29.7119 40.5114 31.1035 42.5856L31.1198 42.6183L35.6445 49.8125C37.4593 52.7033 39.3555 55.6512 41.7155 57.8152C43.986 59.8975 46.7367 61.302 50.3744 61.3184C54.3132 61.3265 57.2022 59.8648 59.5378 57.6682C61.971 55.3817 63.8916 52.246 65.7878 49.1184L70.874 40.7074C71.8262 38.5353 72.168 37.0817 71.9482 36.2325C71.818 35.7262 71.2647 35.473 70.3125 35.4322C70.1091 35.424 69.9056 35.4159 69.694 35.424C69.4661 35.4322 69.2301 35.4485 68.986 35.4649C68.8477 35.4812 68.7175 35.4649 68.5954 35.4404C68.1397 35.4649 67.6758 35.4322 67.2038 35.3669L68.9453 27.6255C56.014 29.667 46.346 20.0312 32.6742 25.6983L33.6589 34.8198C33.0973 34.8443 32.5765 34.8198 32.0964 34.7544ZM40.2832 73.9267C37.793 71.0849 37.5814 68.1043 40.2832 64.9522C43.3431 65.728 46.1507 67.0427 48.7386 68.8229C49.3571 68.6188 50.0488 68.5698 50.7243 68.6678C53.4668 66.6834 56.9987 65.8995 60.0749 64.4215C63.7207 67.9818 63.3301 71.2645 59.7412 74.3186C57.5765 73.8205 55.5257 73.0284 53.5726 71.9913C53.5482 72.5221 53.418 73.1101 53.1576 73.7633L57.1452 87.6455C60.2295 81.1454 63.4359 74.6861 64.1683 67.304C62.9476 65.8668 61.6536 63.9642 60.5306 62.3146C60.1969 61.8247 59.8877 61.3674 59.5866 60.9346C57.1208 62.7474 54.1585 63.8825 50.3662 63.8662C46.2891 63.858 43.1478 62.3963 40.5518 60.1915C40.5355 60.216 40.5192 60.2486 40.5029 60.2731C40.0798 60.8611 39.6077 61.5552 39.0951 62.3065C38.1348 63.7192 37.0606 65.3034 36.0026 66.6344C37.3698 75.1924 40.6413 81.2107 43.6035 87.6374L47.5911 73.7552C47.0785 72.8896 46.8424 72.1383 46.8099 71.485C44.7673 72.6528 42.57 73.4122 40.2832 73.9267ZM61.1654 59.6362C61.4828 60.0935 61.8408 60.6161 62.2152 61.1632C62.915 62.1921 63.6882 63.3272 64.4531 64.3643C69.7428 68.9454 84.8714 69.8927 90.5273 73.0611C92.3259 74.0655 93.9616 75.3557 95.2718 77.0869C97.2575 79.7163 98.4782 83.1624 98.8119 87.5312L100 92.8636C99.707 95.9503 97.9655 97.7305 94.5231 98H50.3744H5.47689C2.04264 97.7387 0.292969 95.9585 0 92.8636L1.18815 87.5312C1.52181 83.1624 2.74251 79.7245 4.72819 77.0869C6.03841 75.3475 7.66602 74.0655 9.47266 73.0611C14.8438 70.056 28.7516 69.0516 34.6761 65.0339C35.6038 63.8335 36.556 62.4208 37.4186 61.1632C37.9476 60.3793 38.444 59.6525 38.8591 59.0809C38.9323 58.9829 39.0137 58.9012 39.1113 58.8359C36.9222 56.5821 35.1644 53.8547 33.488 51.1762L28.9714 43.9657C27.3193 41.4914 26.4648 39.2376 26.4079 37.3839C26.3835 36.5101 26.53 35.718 26.8473 35.0239C27.181 34.2971 27.7018 33.6847 28.4017 33.2111C28.7272 32.9906 29.0934 32.8028 29.5003 32.6476C29.2074 28.7361 29.1016 23.812 29.2887 19.6882C29.3864 18.7083 29.5736 17.7283 29.8421 16.7566C30.9977 12.6164 33.8949 9.28472 37.4756 6.99824C38.737 6.18981 40.1204 5.5202 41.5853 4.98941C44.1813 4.04215 42.9199 0.0571537 45.8008 -0.00817414C52.5472 -0.163328 63.5986 5.56103 67.9118 10.2401C70.4183 12.9676 71.9971 16.5688 72.3307 21.3459L72.0459 33.1049C73.2992 33.4887 74.0967 34.2808 74.4303 35.571C74.7966 37.0001 74.3978 39.0171 73.1934 41.7608C73.169 41.8098 73.1445 41.8588 73.1201 41.9078L67.9688 50.4168C65.9831 53.6913 63.973 56.9822 61.2793 59.5055L61.1654 59.6362Z" fill="#050505"/>
</g>
<defs>
<clipPath id="clip0">
<rect width="100" height="98" fill="white"/>
</clipPath>
</defs>
</svg>
