<svg width="9" height="16" viewBox="0 0 9 16" fill="none" xmlns="http://www.w3.org/2000/svg">
<path d="M2.05084 15.3773L2.0506 15.3776C1.67584 15.7718 1.05755 15.7808 0.672533 15.3963C0.289657 15.014 0.281477 14.3881 0.654022 13.9947C0.654038 13.9946 0.654054 13.9946 0.65407 13.9946L6.35012 7.97442L0.654457 2.00523L0.762981 1.90168L0.654454 2.00523C0.279807 1.61256 0.28999 0.985139 0.672533 0.603134C1.05753 0.218677 1.67585 0.227573 2.05063 0.623118C2.05068 0.623175 2.05073 0.623232 2.05079 0.623288L8.35456 7.2302C8.36309 7.23786 8.37406 7.24786 8.38533 7.25936M2.05084 15.3773L8.27875 7.36491M2.05084 15.3773L8.29875 8.77331M2.05084 15.3773L8.19233 8.66754L8.29875 8.77331M8.38533 7.25936C8.38559 7.25963 8.38585 7.25989 8.38611 7.26016L8.27875 7.36491M8.38533 7.25936C8.38507 7.2591 8.38481 7.25884 8.38454 7.25858L8.27875 7.36491M8.38533 7.25936C8.73408 7.60711 8.77331 8.15698 8.49733 8.55047M8.27875 7.36491C8.56893 7.65363 8.60775 8.10797 8.39016 8.44119L8.40242 8.45338L8.40123 8.45457L8.49733 8.55047M8.49733 8.55047C8.48077 8.57407 8.46308 8.59711 8.44426 8.61951M8.49733 8.55047L8.50363 8.55676L8.44426 8.61951M8.29875 8.77331L8.30013 8.77468L8.40578 8.66271C8.41909 8.6486 8.43192 8.63419 8.44426 8.61951M8.29875 8.77331L8.44426 8.61951" fill="black" stroke="black" stroke-width="0.3"/>
</svg>
