<svg width="70" height="70" viewBox="0 0 70 70" fill="none" xmlns="http://www.w3.org/2000/svg">
<path d="M19.5895 38.7279C19.4266 38.5524 19.2808 38.3644 19.1554 38.169C19.0295 37.9725 18.9196 37.7623 18.829 37.5441C18.5265 36.8235 18.4445 36.0453 18.5721 35.3031C18.6997 34.5659 19.0347 33.8612 19.5656 33.2819L19.7593 33.0825C21.0655 31.8378 23.0468 31.606 24.6008 32.5408C24.823 32.6735 25.0349 32.8313 25.2326 33.0119L25.252 33.0295C26.352 34.0846 28.2131 35.8101 29.435 36.8975L30.4837 37.8381L43.3193 24.3741C43.4999 24.1878 43.6987 24.0209 43.9089 23.8751C44.1243 23.7264 44.3504 23.6005 44.584 23.4985C44.8198 23.3954 45.0693 23.3145 45.3246 23.2587C45.5792 23.2023 45.839 23.1704 46.097 23.1647H46.1118C46.3687 23.1619 46.6205 23.1801 46.8757 23.2234C47.1247 23.2655 47.3748 23.3333 47.6351 23.4336C47.8749 23.5253 48.1051 23.6404 48.3227 23.7777C48.5306 23.9093 48.7334 24.0659 48.9242 24.2459L49.0165 24.3297C49.1965 24.508 49.3589 24.7017 49.5007 24.9073C49.6466 25.1175 49.7713 25.3437 49.8722 25.5784C49.9764 25.8142 50.0573 26.0637 50.1137 26.3184C50.1707 26.5684 50.2014 26.8282 50.2077 27.0931V27.2241C50.2054 27.4514 50.1838 27.6821 50.1427 27.91C50.0977 28.1578 50.03 28.4016 49.9399 28.634C49.8488 28.8722 49.732 29.104 49.5942 29.3233C49.4586 29.5381 49.2991 29.7443 49.1202 29.9329L33.6146 46.2024C33.4323 46.3972 33.2369 46.5681 33.0324 46.714C32.8222 46.8643 32.5955 46.9937 32.3585 47.1019C32.1209 47.209 31.8737 47.2939 31.6248 47.3525C31.377 47.4118 31.1183 47.4471 30.8557 47.4591L30.7845 47.4608C30.5435 47.4659 30.306 47.4517 30.0776 47.4163L30.0195 47.405C29.783 47.3651 29.5529 47.3058 29.333 47.2284C29.0932 47.1429 28.8585 47.033 28.6346 46.9008L28.5987 46.878C28.3874 46.7504 28.1903 46.6063 28.0108 46.4485L27.9749 46.4143C27.0749 45.5792 26.0968 44.7293 25.1078 43.8702C23.3949 42.3817 21.0188 40.2346 19.5946 38.7319L19.5895 38.7279ZM35 0C44.6615 0 53.416 3.92098 59.7535 10.2465C66.079 16.584 69.9994 25.3385 69.9994 35C69.9994 44.662 66.0785 53.4166 59.7535 59.7541C53.4166 66.0796 44.6615 70 35 70C25.338 70 16.5834 66.0796 10.2459 59.7541C3.92041 53.4166 0 44.6615 0 34.9994C0 25.3385 3.92041 16.584 10.2459 10.2465C16.584 3.92098 25.338 0 35 0ZM55.1996 14.8004C50.0311 9.63127 42.8898 6.4349 35 6.4349C27.1096 6.4349 19.9683 9.63127 14.7998 14.8004C9.63127 19.9689 6.4349 27.1102 6.4349 34.9994C6.4349 42.8898 9.63127 50.0311 14.7998 55.1996C19.9683 60.3682 27.1096 63.5651 35 63.5651C42.8898 63.5651 50.0311 60.3687 55.1996 55.1996C60.3682 50.0305 63.5645 42.8898 63.5645 34.9994C63.5645 27.1102 60.3687 19.9689 55.1996 14.8004Z" fill="#00A912"/>
</svg>
