<svg width="186" height="169" viewBox="0 0 186 169" fill="none" xmlns="http://www.w3.org/2000/svg">
<g clip-path="url(#clip0)">
<path d="M38.8408 29.2028C38.2354 29.808 37.4331 30.1106 36.646 30.1106C35.8438 30.1106 35.0566 29.808 34.4512 29.2028C33.8457 28.5975 33.543 27.7956 33.543 27.0087C33.543 26.2068 33.8457 25.42 34.4512 24.8147C35.5562 23.7101 35.874 22.7115 35.7529 21.7582C35.6318 20.7142 35.0415 19.5945 34.3906 18.3991C33.2705 16.2959 32.0596 14.0565 31.6812 11.3328C31.2876 8.57897 31.7417 5.41656 33.9668 1.57324L33.9819 1.51272C34.4058 0.801552 35.0869 0.317355 35.8286 0.105519C36.5854 -0.106317 37.4331 -0.0155304 38.1748 0.408142C38.9165 0.831815 39.416 1.52785 39.6279 2.28441C39.8398 3.04097 39.749 3.88831 39.3252 4.62974C37.9629 7.00533 37.7056 8.97238 37.9629 10.6973C38.2354 12.4374 39.0679 13.9959 39.855 15.4485C41.0205 17.6123 42.0952 19.6247 42.2314 21.849C42.3828 24.1338 41.5503 26.4943 38.8408 29.2028ZM21.3276 64.7005H164.385C164.96 64.7005 165.52 64.8215 166.035 65.0334C166.534 65.2452 166.973 65.5327 167.367 65.8958C167.397 65.911 167.427 65.9412 167.458 65.9715C168.245 66.7583 168.729 67.8326 168.729 69.028V78.6665H182.897C183.76 78.6665 184.532 79.0145 185.092 79.5744C185.652 80.1343 186 80.9211 186 81.7684C186 82.6309 185.652 83.4026 185.092 83.9624L185.046 84.0078C184.486 84.5374 183.729 84.8703 182.897 84.8703H168.729V148.573C168.729 151.326 168.169 153.959 167.17 156.365C166.125 158.862 164.612 161.116 162.735 162.993C160.858 164.869 158.603 166.397 156.105 167.426C153.698 168.425 151.064 168.984 148.31 168.984H37.4331C34.6782 168.984 32.0444 168.425 29.6377 167.426C27.1401 166.382 24.8848 164.869 23.0078 162.977C21.1309 161.101 19.6021 158.847 18.5576 156.35C17.5586 153.944 16.9985 151.311 16.9985 148.557V84.9006H3.11816C2.25537 84.9006 1.4834 84.5526 0.92334 83.9927C0.348145 83.4177 0 82.646 0 81.7836C0 80.9211 0.348145 80.1494 0.908203 79.5895C1.46826 79.0297 2.25537 78.6817 3.10303 78.6817H16.9985V69.0431C16.9985 68.4681 17.1196 67.9083 17.3315 67.3938C17.5586 66.8642 17.8765 66.38 18.27 65.9866C19.0571 65.1998 20.147 64.7005 21.3276 64.7005ZM162.493 70.9345H23.2349V148.588C23.2349 150.509 23.6133 152.325 24.3096 154.005C25.0361 155.745 26.0957 157.303 27.4126 158.62C28.7295 159.936 30.2886 160.995 32.0293 161.721C33.6943 162.418 35.5259 162.796 37.4482 162.796H148.325C150.232 162.796 152.063 162.418 153.729 161.721C155.454 160.995 157.028 159.936 158.345 158.635C159.662 157.318 160.722 155.76 161.433 154.02C162.129 152.355 162.508 150.524 162.508 148.618V70.9345H162.493ZM30.3643 81.4809C30.3643 80.6185 30.7124 79.8468 31.2725 79.2869C31.8325 78.7271 32.6196 78.379 33.4673 78.379C34.3301 78.379 35.1021 78.7271 35.6621 79.2869C36.2222 79.8468 36.5703 80.6336 36.5703 81.4809V122.471C36.5703 123.334 36.2222 124.105 35.6621 124.665C35.1021 125.225 34.3149 125.573 33.4673 125.573C32.6045 125.573 31.8325 125.225 31.2725 124.665L31.227 124.62C30.6973 124.06 30.3643 123.303 30.3643 122.471V81.4809ZM61.001 38.4933C55.6426 39.265 50.8291 40.2485 46.5605 41.4136C42.2769 42.5938 38.5078 43.9708 35.2686 45.5444C32.998 46.649 30.9849 47.8443 29.2441 49.1305C28.0181 50.0232 26.9282 50.9765 25.9595 51.96H159.813C158.92 51.0219 157.891 50.1292 156.741 49.2818C155.061 48.0562 153.108 46.9213 150.898 45.8924C147.75 44.4096 144.086 43.1386 139.984 42.0188C135.852 40.8991 131.281 39.9761 126.346 39.2045C124.106 38.8564 121.835 38.5387 119.55 38.2512H119.52C117.264 37.9637 114.994 37.7216 112.693 37.4946C110.437 37.2828 108.152 37.0861 105.821 36.9348C103.52 36.7835 101.234 36.6624 98.9639 36.5716C98.1011 36.5414 97.3442 36.1631 96.7993 35.5881C96.2544 35.0131 95.9365 34.2263 95.9668 33.3638V33.3487C95.9819 32.8494 96.1182 32.3803 96.3452 31.9718C96.5723 31.5481 96.9053 31.2001 97.2988 30.9126C97.7832 30.5494 98.2373 30.1409 98.6309 29.6718C99.0244 29.2179 99.3574 28.7034 99.6299 28.1738C99.9023 27.6442 100.114 27.0844 100.25 26.464C100.387 25.8739 100.462 25.2687 100.462 24.6331C100.462 23.574 100.25 22.5753 99.8721 21.6674C99.4785 20.7293 98.9033 19.8668 98.1919 19.1557C97.4805 18.4445 96.6177 17.8544 95.6792 17.4761C94.771 17.0978 93.772 16.886 92.7124 16.886C91.6528 16.886 90.6538 17.0978 89.7456 17.4761C88.792 17.8695 87.9443 18.4445 87.2329 19.1708C86.5215 19.882 85.9312 20.7444 85.5527 21.6826C85.1743 22.5904 84.9624 23.5891 84.9624 24.6483C84.9624 25.2687 85.0381 25.8739 85.1592 26.4489C85.2954 27.039 85.5073 27.614 85.7646 28.1284C86.0371 28.658 86.3701 29.1725 86.7485 29.6264C87.1421 30.0955 87.5811 30.5192 88.0654 30.8672C88.7466 31.3816 89.1704 32.1231 89.2764 32.9099C89.3823 33.6967 89.2007 34.5289 88.686 35.2098C88.3833 35.6032 88.02 35.9059 87.6113 36.1177C87.2178 36.3144 86.7788 36.4354 86.3398 36.4506H86.249H86.1885C84.1147 36.496 81.9956 36.5716 79.8613 36.6775C77.7573 36.7835 75.623 36.9196 73.4282 37.1012C71.3091 37.2677 69.2051 37.4644 67.1465 37.7065C65.0728 37.9334 63.0293 38.1907 61.001 38.4933ZM32.5591 39.9459C36.1011 38.2361 40.1729 36.7381 44.7896 35.4671C49.376 34.196 54.4922 33.152 60.123 32.3349C62.2271 32.0323 64.3462 31.7599 66.4805 31.5178C68.645 31.2757 70.7793 31.0639 72.9287 30.8974C74.2456 30.7915 75.623 30.7007 77.0308 30.6099C77.9995 30.5494 78.9985 30.504 79.9976 30.4586C79.6191 29.6264 79.3164 28.7488 79.1045 27.8561C78.8623 26.8272 78.7261 25.7528 78.7261 24.6483C78.7261 22.7569 79.1045 20.9563 79.7856 19.307C80.4971 17.5971 81.5415 16.0538 82.8281 14.7676C84.1147 13.4815 85.6587 12.4374 87.3691 11.7414C89.019 11.0605 90.8203 10.6822 92.7124 10.6822C94.6045 10.6822 96.4058 11.0605 98.0557 11.7414C99.7661 12.4526 101.31 13.4966 102.597 14.7676C103.883 16.0538 104.928 17.5971 105.639 19.307C106.32 20.9563 106.699 22.7569 106.699 24.6483C106.699 25.768 106.563 26.8574 106.305 27.9166C106.078 28.8699 105.745 29.7929 105.321 30.6705C106.472 30.7461 107.592 30.8218 108.682 30.9126C110.15 31.0185 111.679 31.1547 113.253 31.306C115.599 31.533 117.93 31.7902 120.276 32.0928C122.623 32.3803 124.954 32.7132 127.27 33.0763C132.522 33.8934 137.351 34.8921 141.71 36.0723C146.1 37.2677 150.05 38.6597 153.501 40.2788C157.104 41.9583 160.177 43.8951 162.659 46.1043C165.172 48.3285 167.079 50.8252 168.366 53.6245C168.472 53.8363 168.562 54.0633 168.623 54.3205C168.684 54.5626 168.714 54.8047 168.714 55.0619C168.714 55.9244 168.366 56.6961 167.806 57.2559L167.76 57.3013C167.2 57.8309 166.443 58.1638 165.611 58.1638H19.814C19.7534 58.1638 19.708 58.1638 19.6626 58.1487C19.4658 58.1335 19.2539 58.1033 19.0723 58.0579C18.8604 57.9974 18.6484 57.9217 18.4365 57.8158C18.3911 57.8007 18.3457 57.7704 18.3003 57.7401C17.5889 57.3316 17.0894 56.681 16.8623 55.9395C16.6353 55.1981 16.6807 54.381 17.0591 53.6547C17.0742 53.6093 17.1045 53.5639 17.1348 53.5185C18.6182 50.7798 20.6313 48.268 23.2046 45.9983C25.7627 43.7589 28.8809 41.7314 32.5591 39.9459ZM123.531 24.7996C124.136 25.4048 124.439 26.2068 124.439 26.9936C124.439 27.7956 124.136 28.5824 123.531 29.1876C122.925 29.7929 122.123 30.0955 121.336 30.0955C120.534 30.0955 119.747 29.7929 119.141 29.1876C116.432 26.4791 115.599 24.1187 115.735 21.849C115.872 19.6247 116.961 17.6123 118.112 15.4485C119.625 12.6039 121.366 9.36579 118.642 4.62974L118.611 4.56921C118.203 3.84292 118.127 3.0107 118.339 2.26928C118.551 1.49759 119.05 0.816684 119.792 0.393011C120.534 -0.0306616 121.381 -0.121449 122.138 0.0903877C122.91 0.302224 123.591 0.801552 124.015 1.54298C126.24 5.3863 126.694 8.54871 126.301 11.2875C125.907 14.0111 124.711 16.2656 123.591 18.3537C122.38 20.6536 121.336 22.6056 123.531 24.7996ZM146.993 24.7996C147.598 25.4048 147.901 26.2068 147.901 26.9936C147.901 27.7956 147.598 28.5824 146.993 29.1876C146.387 29.7929 145.585 30.0955 144.798 30.0955C143.996 30.0955 143.208 29.7929 142.603 29.1876C139.894 26.4791 139.061 24.1187 139.197 21.849C139.333 19.6247 140.423 17.6123 141.574 15.4485C142.346 13.9959 143.193 12.4374 143.466 10.6973C143.738 8.97238 143.481 7.00533 142.104 4.62974C141.68 3.88831 141.589 3.04097 141.801 2.28441C142.013 1.51272 142.512 0.831815 143.254 0.408142C143.996 -0.0155304 144.843 -0.106317 145.6 0.105519C146.357 0.317355 147.053 0.816684 147.477 1.55811C149.702 5.40143 150.156 8.56384 149.763 11.3026C149.369 14.0262 148.173 16.2807 147.053 18.3688C146.417 19.5642 145.812 20.6839 145.691 21.728C145.57 22.7115 145.888 23.695 146.993 24.7996ZM62.3027 29.2028C61.6973 29.808 60.895 30.1106 60.1079 30.1106C59.3057 30.1106 58.5186 29.808 57.9131 29.2028C57.3076 28.5975 57.0049 27.7956 57.0049 27.0087C57.0049 26.2068 57.3076 25.42 57.9131 24.8147C60.123 22.6056 59.0786 20.6536 57.8525 18.384C56.7324 16.2807 55.5215 14.0413 55.1431 11.3026C54.7495 8.54871 55.2036 5.3863 57.4287 1.54298C57.8525 0.801552 58.5488 0.302224 59.3208 0.105519C60.0928 -0.0911863 60.9253 -0.0155304 61.667 0.423273C62.4087 0.846946 62.9082 1.54298 63.105 2.31467C63.3018 3.08636 63.2261 3.91857 62.7871 4.66C60.0625 9.38092 61.8032 12.6341 63.3169 15.4637C64.4824 17.6274 65.5571 19.6399 65.6934 21.8641C65.8447 24.1338 64.9971 26.4943 62.3027 29.2028Z" fill="#730022"/>
</g>
<defs>
<clipPath id="clip0">
<rect width="186" height="169" fill="white"/>
</clipPath>
</defs>
</svg>
