<svg width="18" height="18" viewBox="0 0 18 18" fill="none" xmlns="http://www.w3.org/2000/svg">
<circle cx="9" cy="9" r="8" stroke="#757575" stroke-width="2"/>
<path d="M9.93239 7.3405V13.5625H8.07239V7.3405H9.93239ZM10.1244 5.6365C10.1244 5.7845 10.0944 5.9245 10.0344 6.0565C9.97439 6.1845 9.89239 6.2985 9.78839 6.3985C9.68439 6.4945 9.56239 6.5725 9.42239 6.6325C9.28639 6.6885 9.14039 6.7165 8.98439 6.7165C8.83239 6.7165 8.69039 6.6885 8.55839 6.6325C8.42639 6.5725 8.30839 6.4945 8.20439 6.3985C8.10439 6.2985 8.02439 6.1845 7.96439 6.0565C7.90839 5.9245 7.88039 5.7845 7.88039 5.6365C7.88039 5.4845 7.90839 5.3425 7.96439 5.2105C8.02439 5.0785 8.10439 4.9625 8.20439 4.8625C8.30839 4.7625 8.42639 4.6845 8.55839 4.6285C8.69039 4.5725 8.83239 4.5445 8.98439 4.5445C9.14039 4.5445 9.28639 4.5725 9.42239 4.6285C9.56239 4.6845 9.68439 4.7625 9.78839 4.8625C9.89239 4.9625 9.97439 5.0785 10.0344 5.2105C10.0944 5.3425 10.1244 5.4845 10.1244 5.6365Z" fill="#757575"/>
</svg>
