<svg width="42" height="42" viewBox="0 0 42 42" fill="none" xmlns="http://www.w3.org/2000/svg">
<circle cx="21" cy="21" r="21" fill="black" fill-opacity="0.7"/>
<path d="M12.9028 14.3652L12.9028 14.3652L19.5376 20.9999L12.9028 27.6348L12.9027 27.6349C12.4991 28.0387 12.499 28.6933 12.9028 29.0971C13.3066 29.5009 13.9613 29.501 14.3651 29.0971C14.3651 29.0971 14.3652 29.0971 14.3652 29.097L20.9998 22.4623L27.6346 29.0971C28.0385 29.501 28.6932 29.501 29.0971 29.0971L29.0971 29.097C29.5007 28.6932 29.5008 28.0386 29.0971 27.6348L22.4621 20.9999L29.0972 14.3652L28.8232 14.0913L29.0972 14.3652C29.5009 13.9615 29.5009 13.3066 29.0972 12.9029L29.0971 12.9028C28.6932 12.4992 28.0386 12.4989 27.6348 12.9029C27.6347 12.9029 27.6347 12.903 27.6347 12.903L20.9999 19.5377L14.3651 12.9029C13.9613 12.4991 13.3065 12.499 12.9027 12.903C12.4991 13.3068 12.499 13.9614 12.9028 14.3652Z" fill="#F7F7F7" stroke="#F7F7F7" stroke-width="0.8"/>
</svg>
