<svg width="30" height="35" viewBox="0 0 30 35" fill="none" xmlns="http://www.w3.org/2000/svg">
<path fill-rule="evenodd" clip-rule="evenodd" d="M1.92846 3.65183H6.55734V6.64279H4.56051C3.66892 6.64279 2.93115 7.38056 2.93115 8.27216V30.6132C2.93115 31.5048 3.66607 32.2426 4.56051 32.2426H24.4433C25.3378 32.2426 26.0727 31.5077 26.0727 30.6132V8.27216C26.0727 7.37772 25.3349 6.64279 24.4433 6.64279H22.4465V3.65183H27.0754C28.1379 3.65183 29.0038 4.52633 29.0038 5.58029V33.0715C29.0038 34.1283 28.1322 35 27.0754 35H1.92846C0.871653 35 0 34.1312 0 33.0715V5.58029C0 4.51778 0.868804 3.65183 1.92846 3.65183ZM10.7646 27.3146C10.1921 27.3146 9.72776 26.8503 9.72776 26.2778C9.72776 25.7052 10.1921 25.2409 10.7646 25.2409H18.2392C18.8118 25.2409 19.2761 25.7052 19.2761 26.2778C19.2761 26.8503 18.8118 27.3146 18.2392 27.3146H10.7646ZM8.55416 21.0536C7.98161 21.0536 7.51729 20.5892 7.51729 20.0167C7.51729 19.4441 7.98161 18.9798 8.55416 18.9798H20.4497C21.0222 18.9798 21.4865 19.4441 21.4865 20.0167C21.4865 20.5892 21.0222 21.0536 20.4497 21.0536H8.55416ZM6.60861 14.7953C6.03605 14.7953 5.57174 14.331 5.57174 13.7584C5.57174 13.1859 6.03605 12.7216 6.60861 12.7216H22.4009C22.9735 12.7216 23.4378 13.1859 23.4378 13.7584C23.4378 14.331 22.9735 14.7953 22.4009 14.7953H6.60861ZM9.22927 2.69472H11.4169C11.6021 1.17645 12.8298 0 14.3168 0C15.7951 0 17.0143 1.15936 17.2137 2.66338L19.7746 2.69472C19.954 2.69472 20.0964 2.83714 20.0964 3.0166V7.38341C20.0964 7.56287 19.954 7.7053 19.7746 7.7053H9.23496C9.0612 7.7053 8.91308 7.56287 8.91308 7.38341V3.0166C8.90738 2.83999 9.05266 2.69472 9.22927 2.69472ZM13.1204 4.01644C13.3169 4.28705 13.6018 4.55481 13.9009 4.69154C14.1458 4.76561 14.4136 4.7713 14.6614 4.70294C15.0488 4.52348 15.4077 4.09335 15.573 3.73443C15.5929 3.63189 15.6043 3.52649 15.6043 3.41255C15.6043 2.65199 15.0203 2.03386 14.3025 2.03386C13.5818 2.03386 13.0007 2.65199 13.0007 3.41255C13.0007 3.64613 13.0435 3.84838 13.1204 4.01644Z" fill="white"/>
</svg>
