<svg width="30" height="32" viewBox="0 0 30 32" fill="none" xmlns="http://www.w3.org/2000/svg">
<path fill-rule="evenodd" clip-rule="evenodd" d="M1.39559 2.50861H11.5396V0.979175C11.5396 0.440629 11.9869 0 12.5355 0H18.136C18.6843 0 19.132 0.440368 19.132 0.979175V2.50887H29.1523C29.4947 2.50887 29.7739 2.78414 29.7739 3.1206V6.11906H0.773926V3.12034C0.773926 2.78388 1.05337 2.50861 1.39559 2.50861ZM3.0757 7.7097H27.6883C28.2014 7.7097 28.6673 8.12611 28.6209 8.62741L26.5379 31.0831C26.4918 31.5846 26.1168 32 25.6048 32H5.12982C4.61755 32 4.24195 31.5854 4.19639 31.0831L2.14228 8.62741C2.09672 8.12429 2.56211 7.7097 3.0757 7.7097ZM19.0708 11.1975H21.6841V28.2065H19.0708V11.1975ZM8.73929 11.1975H11.3528V28.2065H8.73929V11.1975ZM13.9044 11.1975H16.5184V28.2065H13.9044V11.1975Z" fill="#333333"/>
</svg>
