<svg width="123" height="121" viewBox="0 0 123 121" fill="none" xmlns="http://www.w3.org/2000/svg">
<g clip-path="url(#clip0)">
<path fill-rule="evenodd" clip-rule="evenodd" d="M39.44 42.56C38.21 42.61 37.28 42.86 36.64 43.29C36.28 43.53 36.01 43.85 35.84 44.22C35.65 44.63 35.56 45.13 35.58 45.71C35.63 47.4 36.51 49.61 38.22 52.15L38.24 52.19L43.8 61C46.03 64.54 48.36 68.15 51.26 70.8C54.05 73.35 57.43 75.07 61.9 75.09C66.74 75.1 70.29 73.31 73.16 70.62C76.15 67.82 78.51 63.98 80.84 60.15L87.09 49.85C88.26 47.19 88.68 45.41 88.41 44.37C88.25 43.75 87.57 43.44 86.4 43.39C86.15 43.38 85.9 43.37 85.64 43.38C85.36 43.39 85.07 43.41 84.77 43.43C84.6 43.45 84.44 43.43 84.29 43.4C83.73 43.43 83.16 43.39 82.58 43.31L84.72 33.83C68.83 36.33 56.95 24.53 40.15 31.47L41.36 42.64C40.67 42.67 40.03 42.64 39.44 42.56ZM49.5 90.53C46.44 87.05 46.18 83.4 49.5 79.54C53.26 80.49 56.71 82.1 59.89 84.28C60.65 84.03 61.5 83.97 62.33 84.09C65.7 81.66 70.04 80.7 73.82 78.89C78.3 83.25 77.82 87.27 73.41 91.01C70.75 90.4 68.23 89.43 65.83 88.16C65.8 88.81 65.64 89.53 65.32 90.33L70.22 107.33C74.01 99.37 77.95 91.46 78.85 82.42C77.35 80.66 75.76 78.33 74.38 76.31C73.97 75.71 73.59 75.15 73.22 74.62C70.19 76.84 66.55 78.23 61.89 78.21C56.88 78.2 53.02 76.41 49.83 73.71C49.81 73.74 49.79 73.78 49.77 73.81C49.25 74.53 48.67 75.38 48.04 76.3C46.86 78.03 45.54 79.97 44.24 81.6C45.92 92.08 49.94 99.45 53.58 107.32L58.48 90.32C57.85 89.26 57.56 88.34 57.52 87.54C55.01 88.97 52.31 89.9 49.5 90.53ZM75.16 73.03C75.55 73.59 75.99 74.23 76.45 74.9C77.31 76.16 78.26 77.55 79.2 78.82C85.7 84.43 104.29 85.59 111.24 89.47C113.45 90.7 115.46 92.28 117.07 94.4C119.51 97.62 121.01 101.84 121.42 107.19L122.88 113.72C122.52 117.5 120.38 119.68 116.15 120.01H61.9H6.73C2.51 119.69 0.36 117.51 0 113.72L1.46 107.19C1.87 101.84 3.37 97.63 5.81 94.4C7.42 92.27 9.42 90.7 11.64 89.47C18.24 85.79 35.33 84.56 42.61 79.64C43.75 78.17 44.92 76.44 45.98 74.9C46.63 73.94 47.24 73.05 47.75 72.35C47.84 72.23 47.94 72.13 48.06 72.05C45.37 69.29 43.21 65.95 41.15 62.67L35.6 53.84C33.57 50.81 32.52 48.05 32.45 45.78C32.42 44.71 32.6 43.74 32.99 42.89C33.4 42 34.04 41.25 34.9 40.67C35.3 40.4 35.75 40.17 36.25 39.98C35.89 35.19 35.76 29.16 35.99 24.11C36.11 22.91 36.34 21.71 36.67 20.52C38.09 15.45 41.65 11.37 46.05 8.56999C47.6 7.57999 49.3 6.75999 51.1 6.10999C54.29 4.94999 52.74 0.0699862 56.28 -0.0100138C64.57 -0.200014 78.15 6.80999 83.45 12.54C86.53 15.88 88.47 20.29 88.88 26.14L88.53 40.54C90.07 41.01 91.05 41.98 91.46 43.56C91.91 45.31 91.42 47.78 89.94 51.14C89.91 51.2 89.88 51.26 89.85 51.32L83.52 61.74C81.08 65.75 78.61 69.78 75.3 72.87L75.16 73.03Z" fill="#050505"/>
</g>
<defs>
<clipPath id="clip0">
<rect width="122.88" height="120.01" fill="white"/>
</clipPath>
</defs>
</svg>
