<svg width="29" height="39" viewBox="0 0 29 39" fill="none" xmlns="http://www.w3.org/2000/svg">
<g clip-path="url(#clip0)">
<path d="M0.205688 31.4202L4.98247 0.851929C5.01094 0.669132 5.09616 0.499914 5.22607 0.368208C5.35599 0.236502 5.52402 0.148975 5.70644 0.118008C5.88882 0.0870399 6.07631 0.114199 6.24242 0.195644C6.40853 0.277088 6.54486 0.408696 6.63204 0.57185L11.572 9.78578L13.5414 6.0367C13.6162 5.89446 13.7285 5.77536 13.8661 5.69224C14.0037 5.60917 14.1613 5.56526 14.3221 5.56526C14.4828 5.56526 14.6405 5.60917 14.7781 5.69224C14.9157 5.77536 15.0279 5.89446 15.1028 6.0367L28.434 31.4202H0.205688Z" fill="#FFA000"/>
<path d="M16.7077 19.5135L11.5692 9.78358L0.205078 31.4202L16.7077 19.5135Z" fill="#F57C00"/>
<path d="M28.4335 31.4202L24.7748 8.78016C24.7477 8.62068 24.6772 8.47168 24.5711 8.34957C24.4651 8.22741 24.3274 8.13679 24.1733 8.0876C24.0191 8.03841 23.8544 8.03258 23.6972 8.0707C23.54 8.10886 23.3962 8.1895 23.2818 8.30382L0.205078 31.4202L12.974 38.581C13.3683 38.8011 13.8125 38.9167 14.2641 38.9167C14.7158 38.9167 15.1599 38.8011 15.5543 38.581L28.4335 31.4202Z" fill="#FFCA28"/>
<path d="M24.7749 8.78002C24.7477 8.62054 24.6773 8.47155 24.5712 8.34939C24.4651 8.22727 24.3275 8.13665 24.1733 8.08746C24.0192 8.03827 23.8545 8.03244 23.6973 8.07056C23.5401 8.10872 23.3963 8.18936 23.2819 8.30368L18.7035 12.8952L15.1 6.03438C15.0252 5.89214 14.9129 5.77304 14.7753 5.68997C14.6377 5.60689 14.4801 5.56294 14.3193 5.56294C14.1586 5.56294 14.0009 5.60689 13.8634 5.68997C13.7258 5.77304 13.6135 5.89214 13.5386 6.03438L11.5693 9.78346L6.62931 0.571753C6.54196 0.408565 6.40546 0.276993 6.23919 0.195665C6.07291 0.114338 5.88525 0.0873757 5.70279 0.118597C5.52037 0.149818 5.35234 0.237641 5.22259 0.36963C5.0928 0.50162 5.00784 0.671086 4.9797 0.854038L0.205143 31.4201H0.1875L0.202937 31.4377L0.328642 31.4995L18.6925 13.1157L23.2752 8.52862C23.3896 8.41368 23.5335 8.33249 23.6911 8.29399C23.8486 8.2555 24.0137 8.26116 24.1682 8.31039C24.3228 8.35962 24.4607 8.4505 24.567 8.57303C24.6732 8.69557 24.7436 8.84503 24.7704 9.00497L28.3982 31.4421L28.4335 31.4201L24.7749 8.78002ZM0.247044 31.3782L4.98192 1.07237C5.01006 0.889414 5.09502 0.719949 5.22477 0.587957C5.35456 0.455969 5.52255 0.368147 5.70501 0.336926C5.88748 0.305705 6.07509 0.332666 6.24137 0.413994C6.40768 0.495322 6.54414 0.626894 6.63149 0.790082L11.5715 10.004L13.5409 6.25492C13.6157 6.11268 13.7279 5.99358 13.8655 5.91051C14.0031 5.82743 14.1608 5.78348 14.3215 5.78348C14.4823 5.78348 14.64 5.82743 14.7775 5.91051C14.9151 5.99358 15.0274 6.11268 15.1023 6.25492L18.6308 12.9658L0.247044 31.3782Z" fill="white" fill-opacity="0.2"/>
<path opacity="0.2" d="M15.5543 38.3648C15.1599 38.585 14.7158 38.7005 14.2641 38.7005C13.8125 38.7005 13.3683 38.585 12.974 38.3648L0.235953 31.2195L0.205078 31.4202L12.974 38.5787C13.3683 38.7989 13.8125 38.9144 14.2641 38.9144C14.7158 38.9144 15.1599 38.7989 15.5543 38.5787L28.4335 31.4202L28.4004 31.2173L15.5543 38.3648Z" fill="#A52714"/>
<path d="M24.7754 8.78016C24.7483 8.62063 24.6778 8.47168 24.5718 8.34952C24.4657 8.22736 24.328 8.13674 24.1739 8.08755C24.0198 8.0384 23.855 8.03257 23.6978 8.07069C23.5406 8.10881 23.3969 8.18945 23.2824 8.30381L18.7041 12.8953L15.1006 6.03451C15.0257 5.89227 14.9135 5.77317 14.7759 5.69005C14.6383 5.60698 14.4806 5.56307 14.3199 5.56307C14.1591 5.56307 14.0015 5.60698 13.8639 5.69005C13.7263 5.77317 13.614 5.89227 13.5392 6.03451L11.5698 9.78359L6.62986 0.571858C6.54247 0.408672 6.40601 0.277099 6.23974 0.195772C6.07346 0.114444 5.8858 0.0874823 5.70334 0.118704C5.52092 0.149925 5.35288 0.237747 5.22314 0.369736C5.09335 0.501725 5.00838 0.671191 4.98025 0.854143L0.205688 31.4202L12.9746 38.5787C13.369 38.7989 13.8131 38.9145 14.2648 38.9145C14.7164 38.9145 15.1605 38.7989 15.5549 38.5787L28.434 31.4202L24.7754 8.78016Z" fill="url(#paint0_linear)"/>
</g>
<defs>
<linearGradient id="paint0_linear" x1="-0.855521" y1="7.22338" x2="28.627" y2="36.706" gradientUnits="userSpaceOnUse">
<stop stop-color="white" stop-opacity="0.1"/>
<stop offset="1" stop-color="white" stop-opacity="0"/>
</linearGradient>
<clipPath id="clip0">
<rect width="28.5161" height="39" fill="white" transform="translate(0.0113525)"/>
</clipPath>
</defs>
</svg>
