<svg width="53" height="39" viewBox="0 0 53 39" fill="none" xmlns="http://www.w3.org/2000/svg">
<g clip-path="url(#clip0)">
<path d="M30.2052 10.7412L28.4137 13.8434L22.2869 3.23141L3.47876 35.8041H16.2131C16.2131 37.5174 17.602 38.9063 19.3153 38.9063H3.47877C2.37057 38.9063 1.34666 38.3147 0.79266 37.3549C0.238657 36.3952 0.238713 35.2127 0.792809 34.253L19.601 1.68033C20.1551 0.720472 21.1792 0.129166 22.2876 0.129166C23.3959 0.129166 24.42 0.720472 24.9742 1.68033L30.2052 10.7412Z" fill="#00C58E"/>
<path d="M43.7824 34.253L31.9967 13.8434L30.2052 10.7412L28.4137 13.8434L16.6294 34.253C16.0753 35.2128 16.0752 36.3952 16.6292 37.3549C17.1832 38.3147 18.2071 38.9063 19.3153 38.9063H41.0925C42.2009 38.9063 43.2253 38.3154 43.7796 37.3555C44.3339 36.3956 44.334 35.213 43.7798 34.253H43.7824ZM19.3153 35.8041L30.2052 16.9456L41.0925 35.8041H19.3153L19.3153 35.8041Z" fill="#2F495E"/>
<path d="M52.2086 37.3552C51.6545 38.3148 50.6307 38.9063 49.5226 38.9063H41.0925C42.8058 38.9063 44.1947 37.5174 44.1947 35.8041H49.5162L34.4164 9.6516L31.9967 13.8434L30.2052 10.7412L31.7304 8.10052C32.2846 7.14065 33.3087 6.54935 34.417 6.54935C35.5254 6.54935 36.5495 7.14065 37.1036 8.10052L52.2086 34.253C52.7627 35.2129 52.7627 36.3954 52.2086 37.3552Z" fill="#108775"/>
</g>
<defs>
<clipPath id="clip0">
<rect width="52.349" height="39" fill="white" transform="translate(0.376587)"/>
</clipPath>
</defs>
</svg>
